<?xml version="1.0" encoding="UTF-8" standalone="no"?><!DOCTYPE svg PUBLIC "-//W3C//DTD SVG 1.1//EN" "http://www.w3.org/Graphics/SVG/1.1/DTD/svg11.dtd"><svg width="100%" height="100%" viewBox="0 0 700 250" version="1.1" xmlns="http://www.w3.org/2000/svg" xmlns:xlink="http://www.w3.org/1999/xlink" xml:space="preserve" xmlns:serif="http://www.serif.com/" style="fill-rule:evenodd;clip-rule:evenodd;stroke-linejoin:round;stroke-miterlimit:2;"><rect id="MASTER-HORIZONTAL" x="0" y="0" width="699.97" height="250" style="fill:#141a46;"/><g id="g1"><path d="M142.552,91.406c0,0.883 0.247,2.438 0.53,3.498c0.259,1.013 0.436,2.073 0.53,3.18c0.283,1.554 0.106,0.565 0,2.897c-0.047,0.966 -0.212,1.637 -0.495,2.014c-0.283,0.389 -0.813,1.342 -1.131,2.12c-0.353,0.742 -0.954,1.484 -1.378,1.625c-1.237,0.389 -2.791,1.166 -3.921,1.943c-0.883,0.601 -3.71,1.413 -11.235,3.286c-7.772,1.908 -16.463,8.479 -17.099,14.485c0,0 -0.707,3.038 -1.025,4.699c-0.636,3.568 -6.606,13.849 -9.256,15.191c-0.212,0.106 -1.978,1.025 -3.427,1.908c-8.514,5.476 -7.454,3.498 -17.028,2.367c-3.815,-0.742 -6.147,1.978 -5.547,4.451c0.601,2.473 1.06,1.978 1.978,3.144c2.438,3.215 2.014,4.239 -2.685,6.924c-1.201,0.671 -3.038,2.014 -5.829,3.921c-2.791,1.908 -7.666,5.087 -9.327,6.147c-3.851,2.508 -5.37,3.815 -8.973,11.305c-1.554,3.25 -2.685,7.207 -3.674,8.938c-0.989,1.731 -1.731,2.791 -2.155,3.604c-3.533,6.571 -6.571,7.136 -9.291,7.172c-3.71,0 -6.077,2.932 -6.077,6.818c0,3.886 -0.53,8.408 -6.606,11.835c-2.756,1.554 -3.144,1.802 -4.699,3.25c-1.625,1.484 -0.283,3.215 3.003,3.886c2.862,0.601 8.797,-1.554 13.39,-4.875c1.131,-0.813 2.19,-1.448 2.332,-1.448c1.448,0 8.797,-9.892 12.118,-16.287c0.707,-1.378 4.663,-5.511 8.514,-8.867c1.59,-1.378 3.18,-2.826 3.568,-3.18c0.389,-0.353 1.413,-1.201 2.332,-1.872c1.519,-1.131 9.044,-8.196 10.705,-10.104c1.943,-2.19 2.65,-2.72 4.169,-3.003c1.837,-0.318 4.875,-2.014 6.465,-3.533c0.601,-0.565 1.802,-1.484 2.72,-2.084c0.919,-0.601 2.049,-1.413 2.508,-1.872c0.989,-0.919 0.459,-0.742 8.938,-2.932c6.889,-1.766 10.811,-1.237 12.966,-0.106c0,0 20.031,6.677 35.329,11.446c5.723,1.908 14.591,1.625 16.251,-3.109c0.954,-2.791 -0.813,-13.884 -2.791,-20.42c-2.544,-9.998 -9.539,-20.738 -9.539,-20.738c-1.201,-1.201 -1.237,-2.12 -0.106,-3.321c2.756,-2.932 9.68,-7.808 14.202,-9.998c2.579,-1.237 5.264,-2.826 5.971,-3.498c3.109,-3.038 5.688,-6.112 6.924,-8.302c0.742,-1.307 1.59,-2.508 1.872,-2.685c0.53,-0.353 2.049,-2.614 4.204,-6.218c1.378,-2.296 1.484,-3.286 1.201,-11.129l-25.719,-41.652l0.53,-12.966l-12.082,-4.416" style="fill:#d4d4d4;fill-rule:nonzero;stroke:#d4d4d4;stroke-width:1px;"/><path d="M142.552,91.406c0,0 -1.06,0 -1.943,0.212c-0.883,0.212 -2.932,0.318 -4.593,0.565c-1.66,0.247 -3.215,1.272 -3.957,1.731c-0.742,0.459 -1.413,1.272 -1.872,2.65c-0.459,1.378 0.883,1.872 0.424,1.731c-0.459,-0.141 -0.989,-0.989 -1.166,-1.413c-0.177,-0.424 0,-0.777 0.424,-1.625c0.424,-0.848 -0.601,-0.777 -0.777,-1.06c-0.177,-0.283 0.177,-1.166 0.777,-1.59c0.601,-0.424 1.872,-0.636 2.826,-0.919c0.954,-0.283 1.413,-0.989 1.802,-1.625c0.389,-0.636 -0.495,-1.766 -0.459,-1.307c0.035,0.459 -0.389,1.166 -0.777,1.802c-0.389,0.636 -1.731,0.777 -3.038,1.166c-1.307,0.389 -2.155,0.318 -3.109,1.201c-0.954,0.883 -0.636,0.707 -0.883,2.932c-0.247,2.226 1.625,1.131 1.025,1.484c-0.601,0.353 -1.413,0.141 -1.766,-0.106c-0.353,-0.247 -0.283,-0.989 -0.283,-1.59c0,-0.601 -0.601,-1.554 -0.601,-1.554c-1.131,1.554 -2.367,1.166 -2.084,-0.671c0.212,-1.237 -0.742,-2.72 -0.848,-2.049c-0.283,2.19 -2.826,4.169 -1.731,2.826c1.095,-1.342 0.177,-2.508 0.177,-2.508c-0.919,0.459 -1.908,1.413 -2.72,2.791c-1.272,2.155 -1.06,2.65 1.06,2.756c0.989,0.035 0.989,0.071 -0.283,0.636c-1.837,0.813 -2.826,0.389 -2.438,-1.025c0.53,-2.014 0.424,-2.296 -0.954,-2.65c-1.272,-0.318 -1.378,-0.495 -1.378,-2.049c0,-1.554 -0.177,-1.696 -0.424,-1.696c-0.848,0 -0.389,-0.777 0.636,-1.025c1.519,-0.389 1.943,-1.519 1.625,-4.487c-0.353,-3.321 -1.378,-4.805 -2.579,-3.71l3.921,-9.963l27.945,9.68" style="fill:#d4d4d4;fill-rule:nonzero;stroke:#d4d4d4;stroke-width:0.35px;stroke-linejoin:miter;stroke-miterlimit:10;"/><path id="path11" d="M226.069,33.679c-0.671,1.342 -1.978,3.604 -2.968,4.981c-0.989,1.378 -2.296,3.462 -2.932,4.593" style="fill:#d4d4d4;fill-rule:nonzero;stroke:#d4d4d4;stroke-width:1px;"/></g><path d="M114.501,70.81c-2.862,-0.459 -4.84,-1.378 -6.748,-2.367c-1.908,-0.989 -1.378,-0.671 -2.049,-0.919c-1.201,-0.495 -2.438,-0.848 -3.886,-1.201c-2.296,-0.53 -6.677,-1.095 -9.857,-1.66c-3.18,-0.565 -11.305,-1.625 -16.145,-2.579c-4.84,-0.919 -10.316,-2.367 -10.316,-2.367l-4.345,-1.307c-1.06,-0.318 -1.802,-0.071 -1.802,-0.071l-2.296,0.636l-3.921,-1.448l-2.438,-1.237l-1.166,-0.495l-1.201,-0.495c-1.766,0.283 0.883,2.014 0.883,2.014l3.215,1.766l-3.533,-0.742c-1.908,0.318 -0.318,1.484 -0.318,1.484c0,0 -1.166,0.212 -1.802,0.035c-0.636,-0.177 -0.636,0.212 -0.742,0.53c0.318,0.636 0.989,0.707 0.989,0.707l1.66,0.424c0,0 0.777,0.141 1.625,0.177c1.272,0.071 3.109,0.177 3.639,0.177c0.777,0 2.261,-0.141 2.261,-0.141c0,0 2.544,0.813 3.356,1.837c0.813,1.025 -0.565,1.625 -0.565,1.625l-2.049,0.636c0,0 -1.378,-0.283 -3.18,0.177c-1.802,0.495 -1.519,1.166 -1.519,1.166c0,0 0,0.565 0.601,0.777c0,0 0.636,0.141 2.19,0c1.237,-0.424 3.286,-0.283 4.911,-0.177c1.625,0.106 3.78,0.283 5.476,-0.106c1.66,-0.424 2.968,-1.06 4.769,-1.201c1.802,-0.141 13.142,4.169 13.142,4.169c0,0 10.775,3.815 14.732,5.158c3.957,1.342 3.992,1.131 5.759,1.201c1.766,0.071 5.759,0.424 5.759,0.424l7.03,1.448l10.033,1.731c0,0 4.946,0.954 6.112,1.519c1.166,0.565 9.185,6.359 9.715,9.927l4.84,0.848c2.084,3.003 2.367,5.441 3.286,8.09c0.919,2.65 1.237,5.087 1.237,5.087l15.721,16.251c0,0 5.865,-6.642 8.797,-10.987l4.204,-6.218c0,0 5.723,-4.522 6.394,-10.316c0,-3.038 -1.448,-7.066 -1.448,-7.066c0,0 -0.671,-1.837 -0.671,-2.579c0,-0.742 0.318,-4.628 2.826,-7.136c1.766,-1.766 3.992,-3.745 6.077,-5.335c2.084,-1.59 5.405,-3.78 6.289,-4.734c0.883,-0.954 4.946,-5.123 6.642,-7.066c1.696,-1.943 4.663,-3.674 6.5,-4.769c1.872,-1.095 2.72,-1.802 3.71,-2.932c0.989,-1.166 2.367,-4.239 3.003,-4.981c0.636,-0.742 0.883,-1.696 0.883,-1.696c0,0 8.338,-12.012 10.387,-15.121c2.049,-3.074 2.826,-3.639 4.522,-4.275c1.696,-0.636 4.169,-0.954 4.169,-0.954c0,0 3.921,-0.495 4.981,-0.671c1.06,-0.177 2.685,-0.177 2.685,-0.177c0,0 1.484,-0.283 2.155,-0.601c0.707,-0.353 -0.247,-1.201 -0.247,-1.201l-1.696,0c0,0.035 -2.261,0.141 -2.261,0.141l-1.66,-0.141l0.459,-0.53c0.459,-0.53 2.685,-0.707 4.381,-0.919c1.696,-0.212 2.332,-0.212 3.462,0c1.131,0.212 2.932,0 3.745,-0.353c0.389,-0.177 0.671,-0.601 0.919,-0.954c0.247,-0.353 -0.141,-0.671 -0.141,-0.671l-0.848,0l-0.106,-0.601c-0.106,-0.636 -1.307,-0.389 -1.307,-0.389l-1.872,0.212l-3.604,0.53l-1.484,-0.495l1.201,-0.636c0,0 2.473,-0.777 3.074,-0.989c0.601,-0.212 2.367,-1.413 2.367,-1.413l0.883,-1.025c0,0 0,-0.53 -1.131,-0.247c-1.131,0.318 -3.462,1.166 -4.416,1.448c-0.954,0.283 -3.074,0.459 -3.074,0.459c0,0 -4.063,0.848 -4.805,1.095c-0.707,0.247 -2.544,1.448 -2.544,1.448l-3.674,1.307c0,0 -1.908,0.247 -3.568,1.201c-1.66,0.954 -4.416,4.381 -4.416,4.381l-11.658,11.764c0,0 -5.052,5.582 -5.9,6.394c-0.848,0.813 -1.802,2.614 -2.473,3.71c-0.671,1.095 -3.674,4.345 -3.674,4.345c0,0 -5.299,5.511 -7.242,6.748c-1.943,1.237 -3.921,1.696 -7.313,2.72c-3.392,1.06 -3.957,1.766 -5.123,2.332c-1.166,0.565 -2.862,1.802 -4.487,2.756c-1.625,0.954 -3.639,1.625 -6.394,1.66c-2.756,0.035 -3.321,-0.671 -4.31,-1.237c-0.989,-0.565 -1.448,-1.237 -2.084,-1.872c-0.883,-1.625 -0.742,-2.685 -1.06,-4.875c-0.106,-1.802 0.707,-3.568 0.989,-4.063c0.283,-0.495 0.495,-0.883 1.342,-1.696c0.813,-0.813 2.296,-1.554 2.296,-1.554c0,0 1.872,-1.095 2.226,-1.837c0.353,-0.742 -0.601,-2.014 -0.601,-2.014l-0.777,-0.848c0,0 -0.071,-0.353 -0.141,-0.636c0.848,-1.237 -0.495,-1.413 -0.707,-1.378c-0.212,0.035 -0.106,0 -0.212,-0.141c-0.106,-0.177 0.247,-0.071 0.601,-0.601c0.389,-0.53 -0.424,-0.883 -0.424,-0.883c0,0 -0.459,0.035 -0.636,-0.459c-0.177,-0.495 -0.106,0 -0.212,-0.53c1.06,-1.095 1.06,-2.296 1.06,-2.296c0,0 0,-0.424 -0.601,-0.565c-0.601,-0.141 -0.707,-0.177 -0.954,-0.177l-0.919,-0.106c0,0 -1.696,-0.813 -2.72,-1.095c-0.071,0 -0.459,-0.283 -0.636,-0.424c-0.177,-0.141 -0.353,-0.459 -0.353,-0.495c-0.106,-0.212 -0.283,-0.883 -0.283,-0.989c0,0 -0.106,-1.484 -0.813,-2.12c-1.095,-0.989 -1.201,-0.883 -2.367,-2.226c-1.166,-1.342 -2.473,-3.568 -3.745,-3.851c-1.272,-0.283 -1.131,0.353 -1.342,-0.071c-2.014,-3.921 -6.041,-1.59 -6.041,-1.59c0,0 -4.805,2.19 -6.677,3.356c-1.872,1.166 -5.405,4.345 -5.405,4.345c0,0 -4.063,4.981 -5.123,7.49c0,0 -9.009,10.387 -18.124,27.556c0,0 -2.438,7.56 -2.791,9.291c-0.707,3.18 -0.671,4.027 -1.802,5.299c-1.131,1.272 -2.579,1.872 -4.345,1.095c-1.766,-0.777 1.66,2.084 3.427,1.095c1.766,-0.989 1.943,-1.06 2.685,-2.367c0.742,-1.307 1.201,-1.943 1.201,-1.943c0,0 1.131,1.766 0.318,3.003c-0.813,1.237 -1.766,1.625 -2.261,2.438c-0.495,0.813 -1.131,1.872 -0.883,3.003c0.247,1.131 0.989,1.625 -0.318,2.756c-1.307,1.131 1.448,-0.883 1.766,-2.014c0.318,-1.131 -0.071,-1.59 1.413,-1.978c1.484,-0.389 0.035,-0.283 -0.459,1.413c-0.495,1.696 0.742,2.756 0.742,2.756c0,0 1.237,-0.283 1.872,0.989c0.636,1.272 0.707,-1.272 0.707,-1.272" style="fill:#d4d4d4;fill-rule:nonzero;stroke:#d4d4d4;stroke-width:1px;"/><path d="M165.198,38.307c0,0 -0.459,1.908 -1.696,0.636c-1.237,-1.272 0.53,0.636 0.53,0.636l1.201,-1.237l-0.035,-0.035Z" style="fill:#d4d4d4;fill-rule:nonzero;stroke:#d4d4d4;stroke-width:0.35px;stroke-linejoin:miter;stroke-miterlimit:10;"/><path d="M155.624,29.864c0,0 0.141,-2.049 -0.353,-2.579c-0.495,-0.53 -0.883,-0.459 -1.342,-0.283c-0.459,0.177 -0.883,0.53 -1.59,0.707c-0.707,0.177 -1.908,0.212 -2.049,-0.247c-0.141,-0.459 0.035,-0.495 0.707,-0.565c0.671,-0.071 1.272,0.495 1.272,0.495" style="fill:#d4d4d4;fill-rule:nonzero;stroke:#d4d4d4;stroke-width:0.35px;stroke-linejoin:miter;stroke-miterlimit:10;"/><path d="M252.682,72.716c4.49,0 7.902,0.516 10.237,1.549c2.335,1.033 4.4,2.178 6.196,3.435c1.078,0.629 1.953,1.1 2.626,1.414c0.673,0.314 1.324,0.471 1.953,0.471c0.898,0 1.549,-0.494 1.953,-1.482c0.404,-0.988 0.741,-2.469 1.01,-4.445l3.098,0c-0.09,1.527 -0.202,3.345 -0.337,5.455c-0.135,2.11 -0.224,4.894 -0.269,8.351c-0.045,3.457 -0.067,8.014 -0.067,13.671l-3.098,0c-0.269,-4.31 -1.212,-8.441 -2.829,-12.392c-1.616,-3.951 -3.973,-7.184 -7.071,-9.698c-3.098,-2.514 -7.161,-3.771 -12.19,-3.771c-4.759,0 -8.688,1.437 -11.786,4.31c-3.098,2.873 -4.647,6.645 -4.647,11.314c0,4.041 1.033,7.43 3.098,10.169c2.065,2.739 4.826,5.208 8.284,7.408c3.457,2.2 7.206,4.557 11.247,7.071c4.669,2.873 8.822,5.724 12.459,8.553c3.637,2.829 6.51,5.949 8.62,9.361c2.11,3.412 3.165,7.543 3.165,12.392c0,5.747 -1.302,10.506 -3.906,14.277c-2.604,3.771 -6.061,6.6 -10.371,8.486c-4.31,1.886 -9.069,2.829 -14.277,2.829c-4.759,0 -8.53,-0.539 -11.314,-1.616c-2.784,-1.078 -5.163,-2.2 -7.139,-3.367c-1.975,-1.257 -3.502,-1.886 -4.58,-1.886c-0.898,0 -1.549,0.494 -1.953,1.482c-0.404,0.988 -0.741,2.469 -1.01,4.445l-3.098,0c0.18,-1.886 0.292,-4.108 0.337,-6.667c0.045,-2.559 0.09,-5.904 0.135,-10.035c0.045,-4.131 0.067,-9.339 0.067,-15.624l3.098,0c0.359,5.388 1.369,10.416 3.031,15.085c1.661,4.669 4.22,8.418 7.677,11.247c3.457,2.829 8.059,4.243 13.806,4.243c2.963,0 5.769,-0.606 8.418,-1.818c2.649,-1.212 4.826,-3.143 6.533,-5.792c1.706,-2.649 2.559,-6.084 2.559,-10.304c0,-3.682 -0.875,-6.892 -2.626,-9.63c-1.751,-2.739 -4.198,-5.298 -7.341,-7.677c-3.143,-2.38 -6.824,-4.826 -11.045,-7.341c-4.22,-2.604 -8.171,-5.253 -11.853,-7.947c-3.682,-2.694 -6.622,-5.814 -8.822,-9.361c-2.2,-3.547 -3.3,-7.835 -3.3,-12.863c0,-5.298 1.19,-9.675 3.569,-13.132c2.38,-3.457 5.5,-6.016 9.361,-7.677c3.861,-1.661 7.992,-2.492 12.392,-2.492Z" style="fill:#f9fafb;fill-rule:nonzero;"/><path d="M374.712,74.198c-0.359,3.412 -0.606,6.712 -0.741,9.9c-0.135,3.188 -0.202,5.635 -0.202,7.341c0,2.155 0.045,4.175 0.135,6.061c0.09,1.886 0.18,3.547 0.269,4.984l-3.098,0c-0.629,-6.286 -1.482,-11.247 -2.559,-14.883c-1.078,-3.637 -2.963,-6.263 -5.657,-7.879c-2.694,-1.616 -6.869,-2.424 -12.526,-2.424l-7.273,0l0,76.639c0,3.592 0.337,6.286 1.01,8.081c0.673,1.796 1.998,3.008 3.973,3.637c1.975,0.629 4.849,1.033 8.62,1.212l0,2.694c-2.335,-0.18 -5.298,-0.292 -8.89,-0.337c-3.592,-0.045 -7.228,-0.067 -10.91,-0.067c-4.041,0 -7.835,0.022 -11.381,0.067c-3.547,0.045 -6.398,0.157 -8.553,0.337l0,-2.694c3.771,-0.18 6.645,-0.584 8.62,-1.212c1.975,-0.629 3.3,-1.841 3.973,-3.637c0.673,-1.796 1.01,-4.49 1.01,-8.081l0,-76.639l-7.273,0c-5.567,0 -9.72,0.808 -12.459,2.424c-2.739,1.616 -4.647,4.243 -5.724,7.879c-1.078,3.637 -1.931,8.598 -2.559,14.883l-3.098,0c0.18,-1.437 0.292,-3.098 0.337,-4.984c0.045,-1.886 0.067,-3.906 0.067,-6.061c0,-1.706 -0.067,-4.153 -0.202,-7.341c-0.135,-3.188 -0.382,-6.488 -0.741,-9.9c3.771,0.09 7.879,0.18 12.324,0.269c4.445,0.09 8.912,0.135 13.402,0.135l24.447,0c4.445,0 8.912,-0.045 13.402,-0.135c4.49,-0.09 8.575,-0.18 12.257,-0.269Z" style="fill:#f9fafb;fill-rule:nonzero;"/><path d="M388.316,74.198c1.886,0.09 4.355,0.18 7.408,0.269c3.053,0.09 6.061,0.135 9.024,0.135c4.22,0 8.261,-0.045 12.122,-0.135c3.861,-0.09 6.6,-0.135 8.216,-0.135c7.273,0 13.312,1.033 18.116,3.098c4.804,2.065 8.396,4.871 10.775,8.418c2.38,3.547 3.569,7.52 3.569,11.92c0,2.694 -0.539,5.567 -1.616,8.62c-1.078,3.053 -2.941,5.926 -5.59,8.62c-2.649,2.694 -6.263,4.916 -10.843,6.667c-4.58,1.751 -10.371,2.626 -17.375,2.626l-12.93,0l0,-2.694l11.583,0c6.375,-0 11.247,-1.01 14.614,-3.031c3.367,-2.02 5.657,-4.714 6.869,-8.081c1.212,-3.367 1.818,-7.116 1.818,-11.247c0,-7.094 -1.684,-12.594 -5.051,-16.5c-3.367,-3.906 -9.137,-5.859 -17.308,-5.859c-4.131,0 -6.824,0.763 -8.081,2.29c-1.257,1.527 -1.886,4.624 -1.886,9.294l0,66.807c0,3.233 0.269,5.657 0.808,7.273c0.539,1.616 1.594,2.694 3.165,3.233c1.571,0.539 3.884,0.898 6.937,1.078l0,2.694c-2.065,-0.18 -4.647,-0.292 -7.745,-0.337c-3.098,-0.045 -6.218,-0.067 -9.361,-0.067c-3.502,0 -6.779,0.022 -9.832,0.067c-3.053,0.045 -5.522,0.157 -7.408,0.337l0,-2.694c3.053,-0.18 5.365,-0.539 6.937,-1.078c1.571,-0.539 2.626,-1.616 3.165,-3.233c0.539,-1.616 0.808,-4.041 0.808,-7.273l0,-66.807c0,-3.322 -0.269,-5.769 -0.808,-7.341c-0.539,-1.571 -1.594,-2.649 -3.165,-3.233c-1.571,-0.584 -3.884,-0.92 -6.937,-1.01l0,-2.694Zm21.416,47.815c4.849,0.18 8.665,0.382 11.449,0.606c2.784,0.224 5.051,0.427 6.802,0.606c1.751,0.18 3.435,0.404 5.051,0.673c6.016,0.988 10.349,2.806 12.998,5.455c2.649,2.649 4.602,6.757 5.859,12.324l3.367,13.739c0.898,3.951 1.818,6.802 2.761,8.553c0.943,1.751 2.402,2.582 4.377,2.492c1.527,-0.09 2.806,-0.584 3.839,-1.482c1.033,-0.898 2.133,-2.11 3.3,-3.637l2.02,1.482c-1.886,2.784 -3.839,4.916 -5.859,6.398c-2.02,1.482 -4.871,2.222 -8.553,2.222c-3.322,0 -6.241,-0.988 -8.755,-2.963c-2.514,-1.975 -4.4,-5.837 -5.657,-11.583l-2.963,-13.469c-0.808,-3.861 -1.729,-7.206 -2.761,-10.035c-1.033,-2.829 -2.469,-5.051 -4.31,-6.667c-1.841,-1.616 -4.557,-2.424 -8.149,-2.424l-14.547,0l-0.269,-2.29Z" style="fill:#f9fafb;fill-rule:nonzero;"/><path d="M561.26,74.198l0,2.694c-3.053,0.09 -5.365,0.539 -6.937,1.347c-1.571,0.808 -2.626,2.11 -3.165,3.906c-0.539,1.796 -0.808,4.355 -0.808,7.677l0,40.542c0,6.286 -0.404,11.763 -1.212,16.432c-0.808,4.669 -2.245,8.71 -4.31,12.122c-2.245,3.771 -5.522,6.802 -9.832,9.092c-4.31,2.29 -9.249,3.435 -14.816,3.435c-4.31,0 -8.418,-0.516 -12.324,-1.549c-3.906,-1.033 -7.341,-2.941 -10.304,-5.724c-2.604,-2.514 -4.647,-5.163 -6.128,-7.947c-1.482,-2.784 -2.492,-6.196 -3.031,-10.237c-0.539,-4.041 -0.808,-9.114 -0.808,-15.22l0,-42.293c0,-3.322 -0.269,-5.769 -0.808,-7.341c-0.539,-1.571 -1.594,-2.649 -3.165,-3.233c-1.571,-0.584 -3.884,-0.92 -6.937,-1.01l0,-2.694c1.886,0.09 4.355,0.18 7.408,0.269c3.053,0.09 6.331,0.135 9.832,0.135c3.143,0 6.263,-0.045 9.361,-0.135c3.098,-0.09 5.679,-0.18 7.745,-0.269l0,2.694c-3.053,0.09 -5.365,0.427 -6.937,1.01c-1.571,0.584 -2.626,1.661 -3.165,3.233c-0.539,1.571 -0.808,4.018 -0.808,7.341l0,44.583c0,4.58 0.224,8.912 0.673,12.998c0.449,4.086 1.369,7.677 2.761,10.775c1.392,3.098 3.524,5.522 6.398,7.273c2.873,1.751 6.69,2.626 11.449,2.626c6.824,0 12.1,-1.504 15.826,-4.512c3.726,-3.008 6.331,-7.161 7.812,-12.459c1.482,-5.298 2.222,-11.269 2.222,-17.914l0,-42.024c0,-3.322 -0.382,-5.882 -1.145,-7.677c-0.763,-1.796 -2.043,-3.098 -3.839,-3.906c-1.796,-0.808 -4.22,-1.257 -7.273,-1.347l0,-2.694c1.616,0.09 3.749,0.18 6.398,0.269c2.649,0.09 5.096,0.135 7.341,0.135c2.335,0 4.647,-0.045 6.937,-0.135c2.29,-0.09 4.153,-0.18 5.59,-0.269Z" style="fill:#f9fafb;fill-rule:nonzero;"/><path d="M574.594,74.198c1.886,0.09 4.355,0.18 7.408,0.269c3.053,0.09 6.061,0.135 9.024,0.135c4.22,0 8.261,-0.045 12.122,-0.135c3.861,-0.09 6.6,-0.135 8.216,-0.135c9.428,0 16.522,1.975 21.281,5.926c4.759,3.951 7.139,9.024 7.139,15.22c0,3.143 -0.651,6.218 -1.953,9.226c-1.302,3.008 -3.457,5.747 -6.465,8.216c-3.008,2.469 -7.026,4.467 -12.055,5.994l0,0.269c7.094,0.898 12.639,2.582 16.634,5.051c3.996,2.469 6.802,5.365 8.418,8.688c1.616,3.322 2.424,6.824 2.424,10.506c0,5.118 -1.28,9.63 -3.839,13.536c-2.559,3.906 -6.263,6.982 -11.112,9.226c-4.849,2.245 -10.641,3.367 -17.375,3.367c-1.975,0 -4.939,-0.067 -8.89,-0.202c-3.951,-0.135 -8.71,-0.202 -14.277,-0.202c-3.143,0 -6.241,0.022 -9.294,0.067c-3.053,0.045 -5.522,0.157 -7.408,0.337l0,-2.694c3.053,-0.18 5.365,-0.539 6.937,-1.078c1.571,-0.539 2.626,-1.616 3.165,-3.233c0.539,-1.616 0.808,-4.041 0.808,-7.273l0,-66.807c0,-3.322 -0.269,-5.769 -0.808,-7.341c-0.539,-1.571 -1.594,-2.649 -3.165,-3.233c-1.571,-0.584 -3.884,-0.92 -6.937,-1.01l0,-2.694Zm33.403,2.694c-4.131,0 -6.824,0.763 -8.081,2.29c-1.257,1.527 -1.886,4.624 -1.886,9.294l0,66.807c0,3.143 0.269,5.522 0.808,7.139c0.539,1.616 1.527,2.694 2.963,3.233c1.437,0.539 3.547,0.808 6.331,0.808c8.8,0 15.198,-2.043 19.194,-6.128c3.996,-4.086 5.994,-9.9 5.994,-17.443c0,-6.914 -1.863,-12.257 -5.59,-16.028c-3.726,-3.771 -9.855,-5.657 -18.385,-5.657l-13.873,0l0,-2.29l11.583,0c5.298,-0 9.384,-1.01 12.257,-3.031c2.873,-2.02 4.849,-4.714 5.926,-8.081c1.078,-3.367 1.616,-6.982 1.616,-10.843c0,-6.645 -1.459,-11.651 -4.377,-15.018c-2.918,-3.367 -7.745,-5.051 -14.479,-5.051Z" style="fill:#f9fafb;fill-rule:nonzero;"/><circle cx="662.308" cy="122.081" r="13.519" style="fill:#c9a857;stroke:#c9a857;stroke-width:1px;stroke-linecap:round;stroke-miterlimit:1.5;"/><path d="M226.269,224.754l0,-17.22l6.716,0c1.509,0 2.796,0.238 3.862,0.713c1.066,0.476 1.886,1.164 2.46,2.066c0.574,0.902 0.861,1.976 0.861,3.223c0,1.246 -0.287,2.316 -0.861,3.21c-0.574,0.894 -1.394,1.583 -2.46,2.066c-1.066,0.484 -2.353,0.726 -3.862,0.726l-5.363,0l1.107,-1.156l0,6.371l-2.46,0Zm2.46,-6.125l-1.107,-1.23l5.289,0c1.574,0 2.768,-0.336 3.579,-1.009c0.812,-0.672 1.218,-1.624 1.218,-2.854c0,-1.23 -0.406,-2.181 -1.218,-2.854c-0.812,-0.672 -2.005,-1.009 -3.579,-1.009l-5.289,0l1.107,-1.23l0,10.184Z" style="fill:#e5e7eb;fill-rule:nonzero;"/><rect x="243.932" y="206.5" width="2.362" height="18.253" style="fill:#e5e7eb;fill-rule:nonzero;"/><path d="M256.527,224.901c-1.115,0 -2.095,-0.205 -2.94,-0.615c-0.845,-0.41 -1.501,-1.037 -1.968,-1.882c-0.467,-0.845 -0.701,-1.906 -0.701,-3.186l0,-7.503l2.362,0l0,7.232c0,1.279 0.307,2.239 0.922,2.878c0.615,0.64 1.48,0.959 2.595,0.959c0.82,0 1.533,-0.168 2.14,-0.504c0.607,-0.336 1.074,-0.828 1.402,-1.476c0.328,-0.648 0.492,-1.431 0.492,-2.349l0,-6.74l2.362,0l0,13.038l-2.239,0l0,-3.518l0.369,0.935c-0.426,0.869 -1.066,1.542 -1.919,2.017c-0.853,0.476 -1.812,0.713 -2.878,0.713Z" style="fill:#e5e7eb;fill-rule:nonzero;"/><path d="M271.681,224.901c-1.082,0 -2.111,-0.148 -3.087,-0.443c-0.976,-0.295 -1.742,-0.656 -2.3,-1.082l0.984,-1.87c0.558,0.377 1.246,0.697 2.066,0.959c0.82,0.262 1.656,0.394 2.509,0.394c1.099,0 1.89,-0.156 2.374,-0.467c0.484,-0.312 0.726,-0.746 0.726,-1.304c0,-0.41 -0.148,-0.73 -0.443,-0.959c-0.295,-0.23 -0.685,-0.402 -1.168,-0.517c-0.484,-0.115 -1.021,-0.217 -1.611,-0.308c-0.59,-0.09 -1.181,-0.205 -1.771,-0.344c-0.59,-0.139 -1.132,-0.336 -1.624,-0.59c-0.492,-0.254 -0.886,-0.607 -1.181,-1.058c-0.295,-0.451 -0.443,-1.054 -0.443,-1.808c0,-0.787 0.221,-1.476 0.664,-2.066c0.443,-0.59 1.07,-1.046 1.882,-1.365c0.812,-0.32 1.775,-0.48 2.89,-0.48c0.853,0 1.718,0.102 2.595,0.308c0.877,0.205 1.595,0.496 2.152,0.873l-1.009,1.87c-0.59,-0.394 -1.205,-0.664 -1.845,-0.812c-0.64,-0.148 -1.279,-0.221 -1.919,-0.221c-1.033,0 -1.804,0.168 -2.312,0.504c-0.508,0.336 -0.763,0.767 -0.763,1.291c0,0.443 0.152,0.783 0.455,1.021c0.303,0.238 0.697,0.422 1.181,0.553c0.484,0.131 1.021,0.242 1.611,0.332c0.59,0.09 1.181,0.205 1.771,0.344c0.59,0.139 1.127,0.332 1.611,0.578c0.484,0.246 0.877,0.59 1.181,1.033c0.303,0.443 0.455,1.033 0.455,1.771c0,0.787 -0.23,1.468 -0.689,2.042c-0.459,0.574 -1.107,1.021 -1.943,1.341c-0.836,0.32 -1.837,0.48 -3.001,0.48Z" style="fill:#e5e7eb;fill-rule:nonzero;"/><path d="M292.763,224.901c-1.263,0 -2.39,-0.279 -3.382,-0.836c-0.992,-0.558 -1.775,-1.337 -2.349,-2.337c-0.574,-1 -0.861,-2.165 -0.861,-3.493c0,-1.328 0.287,-2.489 0.861,-3.481c0.574,-0.992 1.357,-1.767 2.349,-2.325c0.992,-0.558 2.12,-0.836 3.382,-0.836c1.099,0 2.091,0.246 2.977,0.738c0.886,0.492 1.595,1.23 2.128,2.214c0.533,0.984 0.799,2.214 0.799,3.69c0,1.476 -0.258,2.706 -0.775,3.69c-0.517,0.984 -1.218,1.726 -2.103,2.226c-0.886,0.5 -1.894,0.75 -3.026,0.75Zm0.197,-2.066c0.82,0 1.562,-0.189 2.226,-0.566c0.664,-0.377 1.189,-0.914 1.574,-1.611c0.385,-0.697 0.578,-1.505 0.578,-2.423c0,-0.935 -0.193,-1.743 -0.578,-2.423c-0.385,-0.681 -0.91,-1.209 -1.574,-1.587c-0.664,-0.377 -1.406,-0.566 -2.226,-0.566c-0.836,0 -1.583,0.189 -2.239,0.566c-0.656,0.377 -1.181,0.906 -1.574,1.587c-0.394,0.681 -0.59,1.488 -0.59,2.423c0,0.918 0.197,1.726 0.59,2.423c0.394,0.697 0.918,1.234 1.574,1.611c0.656,0.377 1.402,0.566 2.239,0.566Zm4.453,1.919l0,-3.518l0.148,-3.026l-0.246,-3.026l0,-8.684l2.362,0l0,18.253l-2.263,0Z" style="fill:#e5e7eb;fill-rule:nonzero;"/><path d="M310.204,224.901c-1.394,0 -2.62,-0.287 -3.678,-0.861c-1.058,-0.574 -1.878,-1.361 -2.46,-2.362c-0.582,-1 -0.873,-2.148 -0.873,-3.444c0,-1.296 0.283,-2.444 0.849,-3.444c0.566,-1 1.345,-1.784 2.337,-2.349c0.992,-0.566 2.111,-0.849 3.358,-0.849c1.263,0 2.378,0.279 3.346,0.836c0.968,0.558 1.726,1.341 2.276,2.349c0.549,1.009 0.824,2.185 0.824,3.53c0,0.098 -0.004,0.213 -0.012,0.344c-0.008,0.131 -0.021,0.254 -0.037,0.369l-11.095,0l0,-1.697l9.865,0l-0.959,0.59c0.016,-0.836 -0.156,-1.583 -0.517,-2.239c-0.361,-0.656 -0.857,-1.168 -1.488,-1.537c-0.631,-0.369 -1.365,-0.553 -2.202,-0.553c-0.82,0 -1.55,0.184 -2.189,0.553c-0.64,0.369 -1.14,0.886 -1.501,1.55c-0.361,0.664 -0.541,1.423 -0.541,2.275l0,0.394c0,0.869 0.201,1.644 0.603,2.325c0.402,0.681 0.963,1.21 1.685,1.587c0.722,0.377 1.55,0.566 2.485,0.566c0.771,0 1.472,-0.131 2.103,-0.394c0.631,-0.262 1.185,-0.656 1.661,-1.181l1.304,1.525c-0.59,0.689 -1.324,1.214 -2.202,1.574c-0.877,0.361 -1.857,0.541 -2.94,0.541Z" style="fill:#e5e7eb;fill-rule:nonzero;"/><path d="M326.563,224.754l0,-13.038l2.263,0l0,3.542l-0.221,-0.886c0.361,-0.902 0.968,-1.591 1.82,-2.066c0.853,-0.476 1.902,-0.713 3.149,-0.713l0,2.288c-0.098,-0.016 -0.193,-0.025 -0.283,-0.025l-0.258,0c-1.263,0 -2.263,0.377 -3.001,1.132c-0.738,0.754 -1.107,1.845 -1.107,3.272l0,6.494l-2.362,0Z" style="fill:#e5e7eb;fill-rule:nonzero;"/><path d="M342.406,224.901c-1.394,0 -2.62,-0.287 -3.678,-0.861c-1.058,-0.574 -1.878,-1.361 -2.46,-2.362c-0.582,-1 -0.873,-2.148 -0.873,-3.444c0,-1.296 0.283,-2.444 0.849,-3.444c0.566,-1 1.345,-1.784 2.337,-2.349c0.992,-0.566 2.111,-0.849 3.358,-0.849c1.263,0 2.378,0.279 3.346,0.836c0.968,0.558 1.726,1.341 2.276,2.349c0.549,1.009 0.824,2.185 0.824,3.53c0,0.098 -0.004,0.213 -0.012,0.344c-0.008,0.131 -0.021,0.254 -0.037,0.369l-11.095,0l0,-1.697l9.865,0l-0.959,0.59c0.016,-0.836 -0.156,-1.583 -0.517,-2.239c-0.361,-0.656 -0.857,-1.168 -1.488,-1.537c-0.631,-0.369 -1.365,-0.553 -2.202,-0.553c-0.82,0 -1.55,0.184 -2.189,0.553c-0.64,0.369 -1.14,0.886 -1.501,1.55c-0.361,0.664 -0.541,1.423 -0.541,2.275l0,0.394c0,0.869 0.201,1.644 0.603,2.325c0.402,0.681 0.963,1.21 1.685,1.587c0.722,0.377 1.55,0.566 2.485,0.566c0.771,0 1.472,-0.131 2.103,-0.394c0.631,-0.262 1.185,-0.656 1.661,-1.181l1.304,1.525c-0.59,0.689 -1.324,1.214 -2.202,1.574c-0.877,0.361 -1.857,0.541 -2.94,0.541Zm-2.337,-15.08l3.346,-3.198l3.001,0l-4.133,3.198l-2.214,0Z" style="fill:#e5e7eb;fill-rule:nonzero;"/><path d="M355.64,224.901c-1.082,0 -2.111,-0.148 -3.087,-0.443c-0.976,-0.295 -1.742,-0.656 -2.3,-1.082l0.984,-1.87c0.558,0.377 1.246,0.697 2.066,0.959c0.82,0.262 1.656,0.394 2.509,0.394c1.099,0 1.89,-0.156 2.374,-0.467c0.484,-0.312 0.726,-0.746 0.726,-1.304c0,-0.41 -0.148,-0.73 -0.443,-0.959c-0.295,-0.23 -0.685,-0.402 -1.168,-0.517c-0.484,-0.115 -1.021,-0.217 -1.611,-0.308c-0.59,-0.09 -1.181,-0.205 -1.771,-0.344c-0.59,-0.139 -1.132,-0.336 -1.624,-0.59c-0.492,-0.254 -0.886,-0.607 -1.181,-1.058c-0.295,-0.451 -0.443,-1.054 -0.443,-1.808c0,-0.787 0.221,-1.476 0.664,-2.066c0.443,-0.59 1.07,-1.046 1.882,-1.365c0.812,-0.32 1.775,-0.48 2.89,-0.48c0.853,0 1.718,0.102 2.595,0.308c0.877,0.205 1.595,0.496 2.152,0.873l-1.009,1.87c-0.59,-0.394 -1.205,-0.664 -1.845,-0.812c-0.64,-0.148 -1.279,-0.221 -1.919,-0.221c-1.033,0 -1.804,0.168 -2.312,0.504c-0.508,0.336 -0.763,0.767 -0.763,1.291c0,0.443 0.152,0.783 0.455,1.021c0.303,0.238 0.697,0.422 1.181,0.553c0.484,0.131 1.021,0.242 1.611,0.332c0.59,0.09 1.181,0.205 1.771,0.344c0.59,0.139 1.127,0.332 1.611,0.578c0.484,0.246 0.877,0.59 1.181,1.033c0.303,0.443 0.455,1.033 0.455,1.771c0,0.787 -0.23,1.468 -0.689,2.042c-0.459,0.574 -1.107,1.021 -1.943,1.341c-0.836,0.32 -1.837,0.48 -3.001,0.48Z" style="fill:#e5e7eb;fill-rule:nonzero;"/><path d="M369.958,224.901c-1.115,0 -2.095,-0.205 -2.94,-0.615c-0.845,-0.41 -1.501,-1.037 -1.968,-1.882c-0.467,-0.845 -0.701,-1.906 -0.701,-3.186l0,-7.503l2.362,0l0,7.232c0,1.279 0.308,2.239 0.923,2.878c0.615,0.64 1.48,0.959 2.595,0.959c0.82,0 1.533,-0.168 2.14,-0.504c0.607,-0.336 1.074,-0.828 1.402,-1.476c0.328,-0.648 0.492,-1.431 0.492,-2.349l0,-6.74l2.362,0l0,13.038l-2.239,0l0,-3.518l0.369,0.935c-0.426,0.869 -1.066,1.542 -1.919,2.017c-0.853,0.476 -1.812,0.713 -2.878,0.713Z" style="fill:#e5e7eb;fill-rule:nonzero;"/><rect x="381.372" y="206.5" width="2.362" height="18.253" style="fill:#e5e7eb;fill-rule:nonzero;"/><path d="M392.885,224.901c-1.312,0 -2.329,-0.353 -3.05,-1.058c-0.722,-0.705 -1.082,-1.714 -1.082,-3.026l0,-11.956l2.362,0l0,11.857c0,0.705 0.176,1.246 0.529,1.624c0.353,0.377 0.857,0.566 1.513,0.566c0.738,0 1.353,-0.205 1.845,-0.615l0.738,1.697c-0.361,0.312 -0.791,0.541 -1.291,0.689c-0.5,0.148 -1.021,0.221 -1.562,0.221Zm-6.347,-11.242l0,-1.943l8.315,0l0,1.943l-8.315,0Z" style="fill:#e5e7eb;fill-rule:nonzero;"/><path d="M406.439,224.754l0,-2.755l-0.123,-0.517l0,-4.699c0,-1 -0.291,-1.775 -0.873,-2.325c-0.582,-0.549 -1.455,-0.824 -2.62,-0.824c-0.771,0 -1.525,0.127 -2.263,0.381c-0.738,0.254 -1.361,0.594 -1.87,1.021l-0.984,-1.771c0.672,-0.541 1.48,-0.955 2.423,-1.242c0.943,-0.287 1.931,-0.43 2.964,-0.43c1.788,0 3.165,0.435 4.133,1.304c0.968,0.869 1.451,2.198 1.451,3.985l0,7.872l-2.239,0Zm-4.28,0.148c-0.968,0 -1.816,-0.164 -2.546,-0.492c-0.73,-0.328 -1.291,-0.783 -1.685,-1.365c-0.394,-0.582 -0.59,-1.242 -0.59,-1.98c0,-0.705 0.168,-1.345 0.504,-1.919c0.336,-0.574 0.886,-1.033 1.648,-1.378c0.763,-0.344 1.792,-0.517 3.087,-0.517l4.133,0l0,1.697l-4.034,0c-1.181,0 -1.976,0.197 -2.386,0.59c-0.41,0.394 -0.615,0.869 -0.615,1.427c0,0.64 0.254,1.152 0.763,1.537c0.508,0.385 1.214,0.578 2.116,0.578c0.886,0 1.661,-0.197 2.325,-0.59c0.664,-0.394 1.144,-0.968 1.439,-1.722l0.467,1.624c-0.312,0.771 -0.861,1.382 -1.648,1.833c-0.787,0.451 -1.779,0.677 -2.977,0.677Z" style="fill:#e5e7eb;fill-rule:nonzero;"/><path d="M417.78,224.901c-1.312,0 -2.329,-0.353 -3.05,-1.058c-0.722,-0.705 -1.082,-1.714 -1.082,-3.026l0,-11.956l2.362,0l0,11.857c0,0.705 0.176,1.246 0.529,1.624c0.353,0.377 0.857,0.566 1.513,0.566c0.738,0 1.353,-0.205 1.845,-0.615l0.738,1.697c-0.361,0.312 -0.791,0.541 -1.291,0.689c-0.5,0.148 -1.021,0.221 -1.562,0.221Zm-6.347,-11.242l0,-1.943l8.315,0l0,1.943l-8.315,0Z" style="fill:#e5e7eb;fill-rule:nonzero;"/><path d="M427.472,224.901c-1.082,0 -2.111,-0.148 -3.087,-0.443c-0.976,-0.295 -1.742,-0.656 -2.3,-1.082l0.984,-1.87c0.558,0.377 1.246,0.697 2.066,0.959c0.82,0.262 1.656,0.394 2.509,0.394c1.099,0 1.89,-0.156 2.374,-0.467c0.484,-0.312 0.726,-0.746 0.726,-1.304c0,-0.41 -0.148,-0.73 -0.443,-0.959c-0.295,-0.23 -0.685,-0.402 -1.168,-0.517c-0.484,-0.115 -1.021,-0.217 -1.611,-0.308c-0.59,-0.09 -1.181,-0.205 -1.771,-0.344c-0.59,-0.139 -1.132,-0.336 -1.624,-0.59c-0.492,-0.254 -0.886,-0.607 -1.181,-1.058c-0.295,-0.451 -0.443,-1.054 -0.443,-1.808c0,-0.787 0.221,-1.476 0.664,-2.066c0.443,-0.59 1.07,-1.046 1.882,-1.365c0.812,-0.32 1.775,-0.48 2.89,-0.48c0.853,0 1.718,0.102 2.595,0.308c0.877,0.205 1.595,0.496 2.152,0.873l-1.009,1.87c-0.59,-0.394 -1.205,-0.664 -1.845,-0.812c-0.64,-0.148 -1.279,-0.221 -1.919,-0.221c-1.033,0 -1.804,0.168 -2.312,0.504c-0.508,0.336 -0.763,0.767 -0.763,1.291c0,0.443 0.152,0.783 0.455,1.021c0.303,0.238 0.697,0.422 1.181,0.553c0.484,0.131 1.021,0.242 1.611,0.332c0.59,0.09 1.181,0.205 1.771,0.344c0.59,0.139 1.127,0.332 1.611,0.578c0.484,0.246 0.877,0.59 1.181,1.033c0.303,0.443 0.455,1.033 0.455,1.771c0,0.787 -0.23,1.468 -0.689,2.042c-0.459,0.574 -1.107,1.021 -1.943,1.341c-0.836,0.32 -1.837,0.48 -3.001,0.48Z" style="fill:#e5e7eb;fill-rule:nonzero;"/><path d="M435.369,228.394l1.23,-4.969l0.32,1.427c-0.476,0 -0.873,-0.148 -1.193,-0.443c-0.32,-0.295 -0.48,-0.697 -0.48,-1.205c0,-0.492 0.16,-0.894 0.48,-1.205c0.32,-0.312 0.709,-0.467 1.168,-0.467c0.476,0 0.861,0.16 1.156,0.48c0.295,0.32 0.443,0.718 0.443,1.193c0,0.164 -0.012,0.324 -0.037,0.48c-0.025,0.156 -0.066,0.336 -0.123,0.541c-0.057,0.205 -0.144,0.455 -0.258,0.75l-1.156,3.419l-1.55,0Z" style="fill:#e5e7eb;fill-rule:nonzero;"/><path d="M455.91,224.901c-1.082,0 -2.071,-0.25 -2.964,-0.75c-0.894,-0.5 -1.607,-1.242 -2.14,-2.226c-0.533,-0.984 -0.799,-2.214 -0.799,-3.69c0,-1.476 0.258,-2.706 0.775,-3.69c0.517,-0.984 1.222,-1.722 2.116,-2.214c0.894,-0.492 1.898,-0.738 3.014,-0.738c1.279,0 2.411,0.279 3.395,0.836c0.984,0.558 1.763,1.333 2.337,2.325c0.574,0.992 0.861,2.153 0.861,3.481c0,1.328 -0.287,2.493 -0.861,3.493c-0.574,1 -1.353,1.779 -2.337,2.337c-0.984,0.558 -2.116,0.836 -3.395,0.836Zm-6.913,4.625l0,-17.81l2.263,0l0,3.518l-0.148,3.026l0.246,3.026l0,8.241l-2.362,0Zm6.716,-6.691c0.836,0 1.587,-0.189 2.251,-0.566c0.664,-0.377 1.189,-0.914 1.574,-1.611c0.385,-0.697 0.578,-1.505 0.578,-2.423c0,-0.935 -0.193,-1.743 -0.578,-2.423c-0.385,-0.681 -0.91,-1.209 -1.574,-1.587c-0.664,-0.377 -1.415,-0.566 -2.251,-0.566c-0.82,0 -1.562,0.189 -2.226,0.566c-0.664,0.377 -1.189,0.906 -1.574,1.587c-0.385,0.681 -0.578,1.488 -0.578,2.423c0,0.918 0.193,1.726 0.578,2.423c0.385,0.697 0.91,1.234 1.574,1.611c0.664,0.377 1.406,0.566 2.226,0.566Z" style="fill:#e5e7eb;fill-rule:nonzero;"/><rect x="466.021" y="206.5" width="2.362" height="18.253" style="fill:#e5e7eb;fill-rule:nonzero;"/><path d="M478.616,224.901c-1.115,0 -2.095,-0.205 -2.94,-0.615c-0.845,-0.41 -1.501,-1.037 -1.968,-1.882c-0.467,-0.845 -0.701,-1.906 -0.701,-3.186l0,-7.503l2.362,0l0,7.232c0,1.279 0.308,2.239 0.923,2.878c0.615,0.64 1.48,0.959 2.595,0.959c0.82,0 1.533,-0.168 2.14,-0.504c0.607,-0.336 1.074,-0.828 1.402,-1.476c0.328,-0.648 0.492,-1.431 0.492,-2.349l0,-6.74l2.362,0l0,13.038l-2.239,0l0,-3.518l0.369,0.935c-0.426,0.869 -1.066,1.542 -1.919,2.017c-0.853,0.476 -1.812,0.713 -2.878,0.713Z" style="fill:#e5e7eb;fill-rule:nonzero;"/><path d="M493.769,224.901c-1.082,0 -2.111,-0.148 -3.087,-0.443c-0.976,-0.295 -1.742,-0.656 -2.3,-1.082l0.984,-1.87c0.558,0.377 1.246,0.697 2.066,0.959c0.82,0.262 1.656,0.394 2.509,0.394c1.099,0 1.89,-0.156 2.374,-0.467c0.484,-0.312 0.726,-0.746 0.726,-1.304c0,-0.41 -0.148,-0.73 -0.443,-0.959c-0.295,-0.23 -0.685,-0.402 -1.168,-0.517c-0.484,-0.115 -1.021,-0.217 -1.611,-0.308c-0.59,-0.09 -1.181,-0.205 -1.771,-0.344c-0.59,-0.139 -1.132,-0.336 -1.624,-0.59c-0.492,-0.254 -0.886,-0.607 -1.181,-1.058c-0.295,-0.451 -0.443,-1.054 -0.443,-1.808c0,-0.787 0.221,-1.476 0.664,-2.066c0.443,-0.59 1.07,-1.046 1.882,-1.365c0.812,-0.32 1.775,-0.48 2.89,-0.48c0.853,0 1.718,0.102 2.595,0.308c0.877,0.205 1.595,0.496 2.152,0.873l-1.009,1.87c-0.59,-0.394 -1.205,-0.664 -1.845,-0.812c-0.64,-0.148 -1.279,-0.221 -1.919,-0.221c-1.033,0 -1.804,0.168 -2.312,0.504c-0.508,0.336 -0.763,0.767 -0.763,1.291c0,0.443 0.152,0.783 0.455,1.021c0.303,0.238 0.697,0.422 1.181,0.553c0.484,0.131 1.021,0.242 1.611,0.332c0.59,0.09 1.181,0.205 1.771,0.344c0.59,0.139 1.127,0.332 1.611,0.578c0.484,0.246 0.877,0.59 1.181,1.033c0.303,0.443 0.455,1.033 0.455,1.771c0,0.787 -0.23,1.468 -0.689,2.042c-0.459,0.574 -1.107,1.021 -1.943,1.341c-0.836,0.32 -1.837,0.48 -3.001,0.48Z" style="fill:#e5e7eb;fill-rule:nonzero;"/><path d="M514.852,224.901c-1.263,0 -2.39,-0.279 -3.383,-0.836c-0.992,-0.558 -1.775,-1.337 -2.349,-2.337c-0.574,-1 -0.861,-2.165 -0.861,-3.493c0,-1.328 0.287,-2.489 0.861,-3.481c0.574,-0.992 1.357,-1.767 2.349,-2.325c0.992,-0.558 2.12,-0.836 3.383,-0.836c1.099,0 2.091,0.246 2.977,0.738c0.886,0.492 1.595,1.23 2.128,2.214c0.533,0.984 0.8,2.214 0.8,3.69c0,1.476 -0.258,2.706 -0.775,3.69c-0.517,0.984 -1.218,1.726 -2.103,2.226c-0.886,0.5 -1.894,0.75 -3.026,0.75Zm0.197,-2.066c0.82,0 1.562,-0.189 2.226,-0.566c0.664,-0.377 1.189,-0.914 1.574,-1.611c0.385,-0.697 0.578,-1.505 0.578,-2.423c0,-0.935 -0.193,-1.743 -0.578,-2.423c-0.385,-0.681 -0.91,-1.209 -1.574,-1.587c-0.664,-0.377 -1.406,-0.566 -2.226,-0.566c-0.836,0 -1.583,0.189 -2.239,0.566c-0.656,0.377 -1.181,0.906 -1.574,1.587c-0.394,0.681 -0.59,1.488 -0.59,2.423c0,0.918 0.197,1.726 0.59,2.423c0.394,0.697 0.918,1.234 1.574,1.611c0.656,0.377 1.402,0.566 2.239,0.566Zm4.453,1.919l0,-3.518l0.148,-3.026l-0.246,-3.026l0,-8.684l2.362,0l0,18.253l-2.263,0Z" style="fill:#e5e7eb;fill-rule:nonzero;"/><path d="M532.293,224.901c-1.394,0 -2.62,-0.287 -3.678,-0.861c-1.058,-0.574 -1.878,-1.361 -2.46,-2.362c-0.582,-1 -0.873,-2.148 -0.873,-3.444c0,-1.296 0.283,-2.444 0.849,-3.444c0.566,-1 1.345,-1.784 2.337,-2.349c0.992,-0.566 2.112,-0.849 3.358,-0.849c1.263,0 2.378,0.279 3.346,0.836c0.968,0.558 1.726,1.341 2.275,2.349c0.549,1.009 0.824,2.185 0.824,3.53c0,0.098 -0.004,0.213 -0.012,0.344c-0.008,0.131 -0.02,0.254 -0.037,0.369l-11.095,0l0,-1.697l9.865,0l-0.959,0.59c0.016,-0.836 -0.156,-1.583 -0.517,-2.239c-0.361,-0.656 -0.857,-1.168 -1.488,-1.537c-0.631,-0.369 -1.365,-0.553 -2.202,-0.553c-0.82,0 -1.55,0.184 -2.189,0.553c-0.64,0.369 -1.14,0.886 -1.501,1.55c-0.361,0.664 -0.541,1.423 -0.541,2.275l0,0.394c0,0.869 0.201,1.644 0.603,2.325c0.402,0.681 0.963,1.21 1.685,1.587c0.722,0.377 1.55,0.566 2.485,0.566c0.771,0 1.472,-0.131 2.103,-0.394c0.631,-0.262 1.185,-0.656 1.66,-1.181l1.304,1.525c-0.59,0.689 -1.324,1.214 -2.202,1.574c-0.877,0.361 -1.857,0.541 -2.94,0.541Z" style="fill:#e5e7eb;fill-rule:nonzero;"/><path d="M548.652,224.754l0,-13.038l2.263,0l0,3.542l-0.221,-0.886c0.361,-0.902 0.968,-1.591 1.82,-2.066c0.853,-0.476 1.902,-0.713 3.149,-0.713l0,2.288c-0.098,-0.016 -0.193,-0.025 -0.283,-0.025l-0.258,0c-1.263,0 -2.263,0.377 -3.001,1.132c-0.738,0.754 -1.107,1.845 -1.107,3.272l0,6.494l-2.362,0Z" style="fill:#e5e7eb;fill-rule:nonzero;"/><path d="M564.494,224.901c-1.394,0 -2.62,-0.287 -3.678,-0.861c-1.058,-0.574 -1.878,-1.361 -2.46,-2.362c-0.582,-1 -0.873,-2.148 -0.873,-3.444c0,-1.296 0.283,-2.444 0.849,-3.444c0.566,-1 1.345,-1.784 2.337,-2.349c0.992,-0.566 2.112,-0.849 3.358,-0.849c1.263,0 2.378,0.279 3.346,0.836c0.968,0.558 1.726,1.341 2.275,2.349c0.549,1.009 0.824,2.185 0.824,3.53c0,0.098 -0.004,0.213 -0.012,0.344c-0.008,0.131 -0.02,0.254 -0.037,0.369l-11.095,0l0,-1.697l9.865,0l-0.959,0.59c0.016,-0.836 -0.156,-1.583 -0.517,-2.239c-0.361,-0.656 -0.857,-1.168 -1.488,-1.537c-0.631,-0.369 -1.365,-0.553 -2.202,-0.553c-0.82,0 -1.55,0.184 -2.189,0.553c-0.64,0.369 -1.14,0.886 -1.501,1.55c-0.361,0.664 -0.541,1.423 -0.541,2.275l0,0.394c0,0.869 0.201,1.644 0.603,2.325c0.402,0.681 0.963,1.21 1.685,1.587c0.722,0.377 1.55,0.566 2.485,0.566c0.771,0 1.472,-0.131 2.103,-0.394c0.631,-0.262 1.185,-0.656 1.66,-1.181l1.304,1.525c-0.59,0.689 -1.324,1.214 -2.202,1.574c-0.877,0.361 -1.857,0.541 -2.94,0.541Z" style="fill:#e5e7eb;fill-rule:nonzero;"/><path d="M573.99,224.754l0,-13.038l2.263,0l0,3.518l-0.369,-0.935c0.426,-0.853 1.082,-1.517 1.968,-1.993c0.886,-0.476 1.919,-0.713 3.1,-0.713c1.066,0 2.005,0.205 2.817,0.615c0.812,0.41 1.447,1.033 1.906,1.87c0.459,0.836 0.689,1.894 0.689,3.173l0,7.503l-2.362,0l0,-7.232c0,-1.263 -0.308,-2.214 -0.923,-2.854c-0.615,-0.64 -1.48,-0.959 -2.595,-0.959c-0.836,0 -1.566,0.164 -2.189,0.492c-0.623,0.328 -1.103,0.812 -1.439,1.451c-0.336,0.64 -0.504,1.435 -0.504,2.386l0,6.716l-2.362,0Z" style="fill:#e5e7eb;fill-rule:nonzero;"/><path d="M595.466,224.901c-1.312,0 -2.329,-0.353 -3.05,-1.058c-0.722,-0.705 -1.082,-1.714 -1.082,-3.026l0,-11.956l2.362,0l0,11.857c0,0.705 0.176,1.246 0.529,1.624c0.353,0.377 0.857,0.566 1.513,0.566c0.738,0 1.353,-0.205 1.845,-0.615l0.738,1.697c-0.361,0.312 -0.791,0.541 -1.291,0.689c-0.5,0.148 -1.021,0.221 -1.562,0.221Zm-6.347,-11.242l0,-1.943l8.315,0l0,1.943l-8.315,0Z" style="fill:#e5e7eb;fill-rule:nonzero;"/><path d="M609.02,224.754l0,-2.755l-0.123,-0.517l0,-4.699c0,-1 -0.291,-1.775 -0.873,-2.325c-0.582,-0.549 -1.456,-0.824 -2.62,-0.824c-0.771,0 -1.525,0.127 -2.263,0.381c-0.738,0.254 -1.361,0.594 -1.87,1.021l-0.984,-1.771c0.672,-0.541 1.48,-0.955 2.423,-1.242c0.943,-0.287 1.931,-0.43 2.964,-0.43c1.788,0 3.165,0.435 4.133,1.304c0.968,0.869 1.451,2.198 1.451,3.985l0,7.872l-2.239,0Zm-4.28,0.148c-0.968,0 -1.816,-0.164 -2.546,-0.492c-0.73,-0.328 -1.291,-0.783 -1.685,-1.365c-0.394,-0.582 -0.59,-1.242 -0.59,-1.98c0,-0.705 0.168,-1.345 0.504,-1.919c0.336,-0.574 0.886,-1.033 1.648,-1.378c0.763,-0.344 1.792,-0.517 3.087,-0.517l4.133,0l0,1.697l-4.034,0c-1.181,0 -1.976,0.197 -2.386,0.59c-0.41,0.394 -0.615,0.869 -0.615,1.427c0,0.64 0.254,1.152 0.763,1.537c0.508,0.385 1.214,0.578 2.116,0.578c0.886,0 1.66,-0.197 2.325,-0.59c0.664,-0.394 1.144,-0.968 1.439,-1.722l0.467,1.624c-0.312,0.771 -0.861,1.382 -1.648,1.833c-0.787,0.451 -1.779,0.677 -2.977,0.677Z" style="fill:#e5e7eb;fill-rule:nonzero;"/><path d="M622.796,224.901c-1.115,0 -2.12,-0.25 -3.014,-0.75c-0.894,-0.5 -1.599,-1.242 -2.116,-2.226c-0.517,-0.984 -0.775,-2.214 -0.775,-3.69c0,-1.476 0.266,-2.706 0.799,-3.69c0.533,-0.984 1.246,-1.722 2.14,-2.214c0.894,-0.492 1.882,-0.738 2.964,-0.738c1.279,0 2.411,0.279 3.395,0.836c0.984,0.558 1.763,1.333 2.337,2.325c0.574,0.992 0.861,2.153 0.861,3.481c0,1.328 -0.287,2.493 -0.861,3.493c-0.574,1 -1.353,1.779 -2.337,2.337c-0.984,0.558 -2.116,0.836 -3.395,0.836Zm-6.913,-0.148l0,-18.253l2.362,0l0,8.684l-0.246,3.026l0.148,3.026l0,3.518l-2.263,0Zm6.716,-1.919c0.836,0 1.587,-0.189 2.251,-0.566c0.664,-0.377 1.189,-0.914 1.574,-1.611c0.385,-0.697 0.578,-1.505 0.578,-2.423c0,-0.935 -0.193,-1.743 -0.578,-2.423c-0.385,-0.681 -0.91,-1.209 -1.574,-1.587c-0.664,-0.377 -1.414,-0.566 -2.251,-0.566c-0.82,0 -1.562,0.189 -2.226,0.566c-0.664,0.377 -1.189,0.906 -1.574,1.587c-0.385,0.681 -0.578,1.488 -0.578,2.423c0,0.918 0.193,1.726 0.578,2.423c0.385,0.697 0.91,1.234 1.574,1.611c0.664,0.377 1.406,0.566 2.226,0.566Z" style="fill:#e5e7eb;fill-rule:nonzero;"/><path d="M632.907,224.754l0,-13.038l2.362,0l0,13.038l-2.362,0Zm1.181,-15.547c-0.459,0 -0.841,-0.148 -1.144,-0.443c-0.303,-0.295 -0.455,-0.656 -0.455,-1.082c0,-0.443 0.152,-0.812 0.455,-1.107c0.303,-0.295 0.685,-0.443 1.144,-0.443c0.459,0 0.841,0.144 1.144,0.431c0.303,0.287 0.455,0.644 0.455,1.07c0,0.443 -0.148,0.816 -0.443,1.119c-0.295,0.303 -0.681,0.455 -1.156,0.455Z" style="fill:#e5e7eb;fill-rule:nonzero;"/><rect x="640.016" y="206.5" width="2.362" height="18.253" style="fill:#e5e7eb;fill-rule:nonzero;"/><path d="M647.126,224.754l0,-13.038l2.362,0l0,13.038l-2.362,0Zm1.181,-15.547c-0.459,0 -0.841,-0.148 -1.144,-0.443c-0.303,-0.295 -0.455,-0.656 -0.455,-1.082c0,-0.443 0.152,-0.812 0.455,-1.107c0.303,-0.295 0.685,-0.443 1.144,-0.443c0.459,0 0.841,0.144 1.144,0.431c0.303,0.287 0.455,0.644 0.455,1.07c0,0.443 -0.148,0.816 -0.443,1.119c-0.295,0.303 -0.681,0.455 -1.156,0.455Z" style="fill:#e5e7eb;fill-rule:nonzero;"/><path d="M658.639,224.901c-1.312,0 -2.329,-0.353 -3.05,-1.058c-0.722,-0.705 -1.082,-1.714 -1.082,-3.026l0,-11.956l2.362,0l0,11.857c0,0.705 0.176,1.246 0.529,1.624c0.353,0.377 0.857,0.566 1.513,0.566c0.738,0 1.353,-0.205 1.845,-0.615l0.738,1.697c-0.361,0.312 -0.791,0.541 -1.291,0.689c-0.5,0.148 -1.021,0.221 -1.562,0.221Zm-6.347,-11.242l0,-1.943l8.315,0l0,1.943l-8.315,0Z" style="fill:#e5e7eb;fill-rule:nonzero;"/><path d="M669.955,224.901c-1.394,0 -2.62,-0.287 -3.678,-0.861c-1.058,-0.574 -1.878,-1.361 -2.46,-2.362c-0.582,-1 -0.873,-2.148 -0.873,-3.444c0,-1.296 0.283,-2.444 0.849,-3.444c0.566,-1 1.345,-1.784 2.337,-2.349c0.992,-0.566 2.112,-0.849 3.358,-0.849c1.263,0 2.378,0.279 3.346,0.836c0.968,0.558 1.726,1.341 2.275,2.349c0.549,1.009 0.824,2.185 0.824,3.53c0,0.098 -0.004,0.213 -0.012,0.344c-0.008,0.131 -0.02,0.254 -0.037,0.369l-11.095,0l0,-1.697l9.865,0l-0.959,0.59c0.016,-0.836 -0.156,-1.583 -0.517,-2.239c-0.361,-0.656 -0.857,-1.168 -1.488,-1.537c-0.631,-0.369 -1.365,-0.553 -2.202,-0.553c-0.82,0 -1.55,0.184 -2.189,0.553c-0.64,0.369 -1.14,0.886 -1.501,1.55c-0.361,0.664 -0.541,1.423 -0.541,2.275l0,0.394c0,0.869 0.201,1.644 0.603,2.325c0.402,0.681 0.963,1.21 1.685,1.587c0.722,0.377 1.55,0.566 2.485,0.566c0.771,0 1.472,-0.131 2.103,-0.394c0.631,-0.262 1.185,-0.656 1.66,-1.181l1.304,1.525c-0.59,0.689 -1.324,1.214 -2.202,1.574c-0.877,0.361 -1.857,0.541 -2.94,0.541Zm-2.337,-15.08l3.346,-3.198l3.001,0l-4.133,3.198l-2.214,0Z" style="fill:#e5e7eb;fill-rule:nonzero;"/></svg>