<svg version="1.2" xmlns="http://www.w3.org/2000/svg" viewBox="0 0 120 120" width="120" height="120"><defs><linearGradient id="P" gradientUnits="userSpaceOnUse"/><linearGradient id="g1" x2="1" href="#P" gradientTransform="matrix(19.2,25.6,-23.663,17.747,22.4,34.2)"><stop stop-color="#667eea"/><stop offset="1" stop-color="#764ba2"/></linearGradient><linearGradient id="g2" x2="1" href="#P" gradientTransform="matrix(19.2,25.6,-23.663,17.747,40.8,24.6)"><stop stop-color="#667eea"/><stop offset="1" stop-color="#764ba2"/></linearGradient><linearGradient id="g3" x2="1" href="#P" gradientTransform="matrix(19.2,25.6,-23.663,17.747,60,24.6)"><stop stop-color="#667eea"/><stop offset="1" stop-color="#764ba2"/></linearGradient><linearGradient id="g4" x2="1" href="#P" gradientTransform="matrix(19.2,25.6,-23.663,17.747,78.4,34.2)"><stop stop-color="#667eea"/><stop offset="1" stop-color="#764ba2"/></linearGradient><linearGradient id="g5" x2="1" href="#P" gradientTransform="matrix(56,40.994,-38.435,52.504,32,54.006)"><stop stop-color="#f093fb"/><stop offset="1" stop-color="#f5576c"/></linearGradient></defs><style>.a{opacity:.95;fill:url(#g1)}.b{opacity:.95;fill:url(#g2)}.c{opacity:.95;fill:url(#g3)}.d{opacity:.95;fill:url(#g4)}.e{fill:url(#g5)}.f{opacity:.45;fill:#fff}</style><path fill-rule="evenodd" class="a" d="m32 59.8c-5.3 0-9.6-5.7-9.6-12.8 0-7.1 4.3-12.8 9.6-12.8 5.3 0 9.6 5.7 9.6 12.8 0 7.1-4.3 12.8-9.6 12.8z"/><path fill-rule="evenodd" class="b" d="m50.4 50.2c-5.3 0-9.6-5.7-9.6-12.8 0-7.1 4.3-12.8 9.6-12.8 5.3 0 9.6 5.7 9.6 12.8 0 7.1-4.3 12.8-9.6 12.8z"/><path fill-rule="evenodd" class="c" d="m69.6 50.2c-5.3 0-9.6-5.7-9.6-12.8 0-7.1 4.3-12.8 9.6-12.8 5.3 0 9.6 5.7 9.6 12.8 0 7.1-4.3 12.8-9.6 12.8z"/><path fill-rule="evenodd" class="d" d="m88 59.8c-5.3 0-9.6-5.7-9.6-12.8 0-7.1 4.3-12.8 9.6-12.8 5.3 0 9.6 5.7 9.6 12.8 0 7.1-4.3 12.8-9.6 12.8z"/><path class="e" d="m44 63c0-12-12-12-12 0 0 8 12 20 28 32 16-12 28-24 28-32 0-12-12-12-12 0 0-8-8-8-16-4-8-4-16-4-16 4z"/><path fill-rule="evenodd" class="f" d="m53.6 71.8c-1.8 0-3.2-2.1-3.2-4.8 0-2.7 1.4-4.8 3.2-4.8 1.8 0 3.2 2.1 3.2 4.8 0 2.7-1.4 4.8-3.2 4.8z"/></svg>